# xmcd CD database file
#
# Track frame offsets:
#	150
#	12481
#	37597
#	75121
#	92006
#	118875
#	149719
#	168858
#	213230
#	241581
#	269832
#	309775
#	341059
#
# Disc length: 4762 seconds
#
# Revision: 0
# Processed by: cddbd v1.5.2PL0 Copyright (c) Steve Scherf et al.
# Submitted via: CDex 1.51
#
DISCID=a512980d
DTITLE=Scott LaFaro - The Artistry of Scott LaFaro
DYEAR=2011
DGENRE=Jazz
TTITLE0=Victor Feldman - Bebop
TTITLE1=Steve Kuhn - So What
TTITLE2=Cal Tjader and Stan Getz - Crow's Nest
TTITLE3=Bill Evans - Jade Visions
TTITLE4=Bill Evans - Autumn Leaves
TTITLE5=Booker Little - Life's a Little Blue
TTITLE6=Pat Moran - Onilosor
TTITLE7=Ornette Coleman - The Alchemy of Scott LaFaro
TTITLE8=Scott LaFaro - I Hear a Rhapsody
TTITLE9=Hampton Hawes - Hip
TTITLE10=Ornette Coleman - Free Jazz  [bass duet]
TTITLE11=Bill Evans - Gloria's Step
TTITLE12=Stan Kenton - Bernie's Tune
EXTD=YEAR: 2011
EXTT0=
EXTT1=
EXTT2=
EXTT3=
EXTT4=
EXTT5=
EXTT6=
EXTT7=
EXTT8=
EXTT9=
EXTT10=
EXTT11=
EXTT12=
PLAYORDER=
